<svg width="29" height="28" viewBox="0 0 29 28" fill="none" xmlns="http://www.w3.org/2000/svg">
<path d="M23.4167 14.5834C23.4167 12.9734 24.7233 11.6667 26.3333 11.6667V10.5001C26.3333 5.83341 25.1667 4.66675 20.5 4.66675H8.83333C4.16667 4.66675 3 5.83341 3 10.5001V11.0834C4.61 11.0834 5.91667 12.3901 5.91667 14.0001C5.91667 15.6101 4.61 16.9167 3 16.9167V17.5001C3 22.1667 4.16667 23.3334 8.83333 23.3334H20.5C25.1667 23.3334 26.3333 22.1667 26.3333 17.5001C24.7233 17.5001 23.4167 16.1934 23.4167 14.5834Z" stroke="#CCCCCC" stroke-width="1.75" stroke-linecap="round" stroke-linejoin="round"/>
<path d="M12.333 4.66675L12.333 23.3334" stroke="#CCCCCC" stroke-width="1.75" stroke-linecap="round" stroke-linejoin="round" stroke-dasharray="5.83 5.83"/>
</svg>
