<svg width="29" height="28" viewBox="0 0 29 28" fill="none" xmlns="http://www.w3.org/2000/svg">
<path d="M26.7083 11.6666C26.7083 11.8688 26.5355 12.0416 26.3333 12.0416C24.9372 12.0416 23.7917 13.1872 23.7917 14.5833C23.7917 15.9794 24.9372 17.125 26.3333 17.125C26.5355 17.125 26.7083 17.2978 26.7083 17.5C26.7083 20.0552 26.3119 21.5481 25.43 22.4299C24.5481 23.3118 23.0553 23.7083 20.5 23.7083H13.7083V21.5833C13.7083 20.8288 13.0878 20.2083 12.3333 20.2083C11.5789 20.2083 10.9583 20.8288 10.9583 21.5833V23.7083H8.83333C6.27805 23.7083 4.78521 23.3118 3.90335 22.4299C3.02148 21.5481 2.625 20.0552 2.625 17.5V16.9166C2.625 16.7144 2.79781 16.5416 3 16.5416C4.39614 16.5416 5.54167 15.3961 5.54167 14C5.54167 12.6038 4.39614 11.4583 3 11.4583C2.79781 11.4583 2.625 11.2855 2.625 11.0833V10.5C2.625 7.94468 3.02148 6.45184 3.90335 5.56997C4.78521 4.68811 6.27805 4.29163 8.83333 4.29163H10.9583V6.41663C10.9583 7.1711 11.5789 7.79163 12.3333 7.79163C13.0878 7.79163 13.7083 7.1711 13.7083 6.41663V4.29163H20.5C23.0553 4.29163 24.5481 4.68811 25.43 5.56997C26.3119 6.45184 26.7083 7.94468 26.7083 10.5V11.6666ZM12.3333 17.9066C13.0878 17.9066 13.7083 17.2861 13.7083 16.5316V11.4683C13.7083 10.7138 13.0878 10.0933 12.3333 10.0933C11.5789 10.0933 10.9583 10.7138 10.9583 11.4683V16.5316C10.9583 17.2861 11.5789 17.9066 12.3333 17.9066Z" fill="#FCC434" stroke="#FCC434"/>
</svg>
