<svg width="16" height="17" viewBox="0 0 16 17" fill="none" xmlns="http://www.w3.org/2000/svg">
<path d="M14.6668 10.5V6.50004C14.6668 3.16671 13.3335 1.83337 10.0002 1.83337H6.00016C2.66683 1.83337 1.3335 3.16671 1.3335 6.50004V10.5C1.3335 13.8334 2.66683 15.1667 6.00016 15.1667H10.0002C13.3335 15.1667 14.6668 13.8334 14.6668 10.5Z" stroke="#E6E6E6" stroke-linecap="round" stroke-linejoin="round"/>
<path d="M1.68018 5.23999H14.3202" stroke="#E6E6E6" stroke-linecap="round" stroke-linejoin="round"/>
<path d="M5.68018 1.90662V5.14662" stroke="#E6E6E6" stroke-linecap="round" stroke-linejoin="round"/>
<path d="M10.3198 1.90662V4.84662" stroke="#E6E6E6" stroke-linecap="round" stroke-linejoin="round"/>
<path d="M6.5 10.1333V9.33333C6.5 8.30666 7.22667 7.88666 8.11333 8.4L8.80667 8.8L9.5 9.2C10.3867 9.71333 10.3867 10.5533 9.5 11.0667L8.80667 11.4667L8.11333 11.8667C7.22667 12.38 6.5 11.96 6.5 10.9333V10.1333V10.1333Z" stroke="#E6E6E6" stroke-miterlimit="10" stroke-linecap="round" stroke-linejoin="round"/>
</svg>
