<svg width="29" height="28" viewBox="0 0 29 28" fill="none" xmlns="http://www.w3.org/2000/svg">
<path d="M24.7719 7.63887L24.7719 7.63895L24.7804 7.64331C24.9575 7.73401 25.2046 7.90703 25.409 8.22439C25.6119 8.53947 25.7917 9.02633 25.7917 9.77663V18.2233C25.7917 18.9736 25.6119 19.4604 25.409 19.7755C25.2046 20.0929 24.9575 20.2659 24.7804 20.3566L24.7804 20.3566L24.7755 20.3592C24.6053 20.4487 24.347 20.5466 24.0167 20.5466C23.6305 20.5466 23.1 20.4228 22.451 19.9622L22.4504 19.9618L20.7354 18.7485L19.9797 18.2138L19.947 19.139C19.8848 20.8964 19.4748 21.9963 18.7318 22.6735C17.9816 23.3572 16.7858 23.7083 14.9167 23.7083H7.91667C6.00297 23.7083 4.76636 23.0448 3.99869 22.1236C3.21816 21.187 2.875 19.9261 2.875 18.6666V9.33329C2.875 7.38419 3.25755 6.16535 4.00314 5.41976C4.74872 4.67418 5.96757 4.29163 7.91667 4.29163H14.9167C16.7858 4.29163 17.9816 4.64274 18.7318 5.32639C19.4748 6.00358 19.8848 7.10351 19.947 8.86097L19.9797 9.78614L20.7354 9.25147L22.4486 8.03941C22.4489 8.03919 22.4493 8.03897 22.4496 8.03875C23.0639 7.60841 23.565 7.47453 23.9387 7.45868C24.315 7.44271 24.597 7.54503 24.7719 7.63887ZM10.4733 11.0833C10.4733 12.5745 11.6906 13.7766 13.1667 13.7766C14.6427 13.7766 15.86 12.5745 15.86 11.0833C15.86 9.59209 14.6427 8.38996 13.1667 8.38996C11.6906 8.38996 10.4733 9.59209 10.4733 11.0833Z" fill="#FCC434" stroke="#FCC434"/>
</svg>
